<svg width="25" height="24" viewBox="0 0 25 24" fill="none" xmlns="http://www.w3.org/2000/svg">
<g id="Google icon">
<path id="Vector" d="M24.5001 12.2724C24.5001 11.4542 24.4319 10.6391 24.2892 9.83246H12.7417V14.4531H19.3548C19.0814 15.9438 18.199 17.2626 16.9099 18.0983V21.1001H20.8579C23.1692 19.0154 24.5001 15.9263 24.5001 12.2724Z" fill="#4285F4"/>
<path id="Vector_2" d="M12.7417 24C16.0454 24 18.8291 22.9373 20.858 21.103L16.9099 18.1012C15.8107 18.832 14.3966 19.2484 12.7417 19.2484C9.54826 19.2484 6.83881 17.1377 5.86743 14.2959H1.80347V17.3879C3.88293 21.4438 8.11337 24 12.7417 24Z" fill="#34A853"/>
<path id="Vector_3" d="M5.87038 14.2958C5.35653 12.8081 5.35653 11.1922 5.87038 9.70163V6.61249H1.80354C0.065486 10.0043 0.065486 13.9988 1.80354 17.3908L5.87038 14.2958Z" fill="#FBBC04"/>
<path id="Vector_4" d="M12.7417 4.75213C14.4886 4.72592 16.1731 5.36947 17.4386 6.55154L20.9352 3.12751C18.7191 1.08959 15.784 -0.0313877 12.7417 0.000669069C8.11337 0.000669069 3.88005 2.55977 1.80347 6.61263L5.8703 9.70459C6.83881 6.86001 9.54826 4.75213 12.7417 4.75213Z" fill="#EA4335"/>
</g>
</svg>
