<svg width="129" height="74" viewBox="0 0 129 74" fill="none" xmlns="http://www.w3.org/2000/svg">
<g id="Ugyon Logo">
<path id="Vector" d="M68.1343 72.9671H60.1838L59.6869 55.0757C58.6931 49.7763 53.2272 38.5632 43.2863 33.2119C36.8265 29.7335 21.9194 27.8442 13.9689 30.2304C15.4596 28.0763 21.4225 23.2738 32.8513 24.2676C39.6305 24.8546 44.9436 26.9159 46.7647 27.7459C50.9065 29.4004 60.0828 34.9019 63.6622 43.6469C66.1467 39.6717 74.0972 32.715 83.0415 30.7273C91.6582 28.8107 97.9514 31.2243 99.939 32.2181C102.424 33.5422 108.089 37.0861 110.871 40.6655C106.729 39.0082 96.8375 35.7046 90.4951 36.1933C84.0353 36.6902 77.0786 40.6655 74.0972 42.6531C71.8175 44.1738 68.6312 48.616 68.1343 53.0881C67.4217 59.5097 68.1343 72.9671 68.1343 72.9671Z" fill="#9DC468"/>
<path id="Vector_2" d="M17.7448 44.5506H24.7206V63.201C24.7206 65.3551 24.2073 67.2335 23.1807 68.8335C22.1541 70.4225 20.7235 71.6566 18.8887 72.5302C17.054 73.3985 14.9217 73.8298 12.4945 73.8298C10.0373 73.8298 7.89128 73.3985 6.05655 72.5302C4.22182 71.6566 2.7939 70.4225 1.77824 68.8335C0.762588 67.2335 0.254761 65.3551 0.254761 63.201V44.5506H7.24148V62.5921C7.24148 63.5914 7.4599 64.4787 7.89128 65.2623C8.33358 66.0432 8.95061 66.6547 9.74239 67.097C10.5314 67.5393 11.4488 67.7605 12.4945 67.7605C13.5374 67.7605 14.4521 67.5393 15.2329 67.097C16.0247 66.6547 16.639 66.0432 17.0813 65.2623C17.5236 64.4787 17.7448 63.5914 17.7448 62.5921V44.5506ZM48.0724 53.9946C47.914 53.4021 47.6792 52.8806 47.368 52.4274C47.0567 51.966 46.6772 51.5755 46.224 51.2561C45.7735 50.9367 45.2548 50.6964 44.6705 50.5353C44.089 50.366 43.4473 50.2814 42.7511 50.2814C41.3478 50.2814 40.1356 50.62 39.109 51.2998C38.0933 51.9769 37.307 52.9652 36.75 54.2621C36.1958 55.5535 35.9173 57.1207 35.9173 58.9636C35.9173 60.8175 36.1876 62.401 36.7227 63.7088C37.2606 65.0166 38.036 66.0131 39.0516 66.7011C40.07 67.3892 41.3014 67.7304 42.7511 67.7304C44.0316 67.7304 45.1128 67.5257 45.9974 67.1107C46.8929 66.6875 47.57 66.0896 48.0314 65.3169C48.4929 64.547 48.7222 63.6378 48.7222 62.5921L50.0218 62.7477H42.9914V57.6504H55.4577V61.4782C55.4577 64.0665 54.9062 66.2834 53.8059 68.1263C52.7138 69.972 51.2067 71.389 49.2874 72.3773C47.3762 73.3657 45.1783 73.8571 42.6938 73.8571C39.9362 73.8571 37.5145 73.2619 35.4231 72.0661C33.3345 70.8702 31.7073 69.1666 30.5387 66.9551C29.3729 64.7326 28.7886 62.0979 28.7886 59.0482C28.7886 56.6784 29.1408 54.5734 29.848 52.7386C30.5551 50.893 31.538 49.3313 32.7994 48.0508C34.0689 46.7703 35.5378 45.8011 37.2033 45.1431C38.8796 44.4851 40.6816 44.1547 42.6092 44.1547C44.2855 44.1547 45.8418 44.395 47.2834 44.8755C48.7331 45.356 50.0136 46.0331 51.1221 46.9068C52.2442 47.7832 53.1507 48.8235 53.8469 50.0275C54.5431 51.2315 54.9772 52.5557 55.1465 53.9946H48.0724Z" fill="#9DC468"/>
<path id="Vector_3" d="M100.095 59.0073C100.095 62.188 99.4859 64.8855 98.26 67.097C97.0368 69.3085 95.3796 70.9876 93.2909 72.1371C91.2105 73.2838 88.8761 73.8571 86.2878 73.8571C83.6913 73.8571 81.3515 73.2783 79.2738 72.1234C77.1933 70.9631 75.5415 69.284 74.3184 67.0834C73.1034 64.8691 72.4973 62.1798 72.4973 59.0073C72.4973 55.8266 73.1034 53.1291 74.3184 50.9176C75.5415 48.7061 77.1933 47.0269 79.2738 45.8775C81.3515 44.7281 83.6913 44.1547 86.2878 44.1547C88.8761 44.1547 91.2105 44.7281 93.2909 45.8775C95.3796 47.0269 97.0368 48.7061 98.26 50.9176C99.4859 53.1291 100.095 55.8266 100.095 59.0073ZM92.9524 59.0073C92.9524 57.1234 92.6848 55.5344 92.1469 54.2348C91.62 52.9352 90.8583 51.9523 89.8617 51.2834C88.8734 50.6172 87.683 50.2814 86.2878 50.2814C84.9063 50.2814 83.7159 50.6172 82.7166 51.2834C81.7201 51.9523 80.9529 52.9352 80.415 54.2348C79.8881 55.5344 79.626 57.1234 79.626 59.0073C79.626 60.8884 79.8881 62.4802 80.415 63.7798C80.9529 65.0766 81.7201 66.0623 82.7166 66.7284C83.7159 67.3974 84.9063 67.7304 86.2878 67.7304C87.683 67.7304 88.8734 67.3974 89.8617 66.7284C90.8583 66.0623 91.62 65.0766 92.1469 63.7798C92.6848 62.4802 92.9524 60.8884 92.9524 59.0073ZM128.784 44.5506V73.464H122.854L111.349 56.7767H111.163V73.464H104.176V44.5506H110.188L121.568 61.2079H121.808V44.5506H128.784Z" fill="#9DC468"/>
<path id="Vector_4" d="M85.4605 19.8282L69.696 21.9687L57.9941 6.29434L43.2999 14.8073" stroke="#FFD230" stroke-width="0.993874"/>
<path id="Vector_5" d="M76.7264 22.2745C76.68 22.7304 76.5899 23.1754 76.4561 23.6123C76.3223 24.0491 76.1476 24.4696 75.9319 24.8709C75.7162 25.2723 75.4623 25.6518 75.1729 26.004C74.8807 26.3562 74.5586 26.6756 74.2064 26.965C73.8514 27.2544 73.4747 27.5056 73.0706 27.7213C72.6665 27.937 72.246 28.109 71.8092 28.2401C71.3724 28.3711 70.9273 28.4612 70.4714 28.5049C70.0154 28.5486 69.5622 28.5458 69.1062 28.5022C68.653 28.4558 68.208 28.3657 67.7712 28.2319C67.3343 28.0981 66.9139 27.9234 66.5125 27.7077C66.1084 27.492 65.7317 27.2381 65.3795 26.9487C65.0273 26.6565 64.7051 26.3343 64.4157 25.9821C64.1263 25.6272 63.8751 25.2504 63.6621 24.8464C63.4464 24.4423 63.2744 24.0218 63.1406 23.585C63.0096 23.1481 62.9222 22.7004 62.8785 22.2472C62.8349 21.7912 62.8349 21.338 62.8813 20.882C62.9277 20.4288 63.0178 19.9838 63.1516 19.5469C63.2826 19.1101 63.4574 18.6896 63.6758 18.2856C63.8915 17.8842 64.1454 17.5074 64.4348 17.1552C64.7242 16.803 65.0464 16.4809 65.4013 16.1915C65.7562 15.9021 66.133 15.6509 66.5371 15.4379C66.9412 15.2222 67.3616 15.0502 67.7985 14.9164C68.2353 14.7854 68.6803 14.698 69.1363 14.6543C69.5895 14.6106 70.0455 14.6106 70.4987 14.6571C70.9546 14.7035 71.3997 14.7908 71.8365 14.9246C72.2733 15.0584 72.6938 15.2331 73.0951 15.4488C73.4992 15.6673 73.876 15.9184 74.2282 16.2106C74.5804 16.5 74.9026 16.8221 75.192 17.1771C75.4787 17.5293 75.7326 17.9088 75.9455 18.3129C76.1612 18.7142 76.3332 19.1347 76.4643 19.5742C76.5981 20.0111 76.6854 20.4561 76.7291 20.9121C76.7728 21.3653 76.7728 21.8212 76.7264 22.2745Z" fill="#FFD230" stroke="#FFD230" stroke-width="0.993873"/>
<path id="Vector_6" d="M49.5358 14.5451C49.4976 14.9356 49.4185 15.3178 49.3038 15.6918C49.1918 16.0659 49.0417 16.4263 48.856 16.7703C48.6704 17.117 48.4519 17.4392 48.2035 17.7423C47.955 18.0426 47.6793 18.3183 47.3762 18.5668C47.0732 18.8152 46.7483 19.0309 46.4015 19.2139C46.0575 19.3968 45.6971 19.5469 45.3203 19.6589C44.9463 19.7708 44.5641 19.8473 44.1736 19.8855C43.7859 19.921 43.3955 19.921 43.0051 19.8828C42.6147 19.8418 42.2352 19.7654 41.8584 19.6507C41.4843 19.5388 41.1239 19.3886 40.7799 19.2029C40.4359 19.0173 40.111 18.7989 39.8107 18.5504C39.5076 18.302 39.2319 18.0262 38.9834 17.7231C38.7377 17.4201 38.522 17.0952 38.3364 16.7484C38.1534 16.4044 38.006 16.044 37.8913 15.6673C37.7794 15.2932 37.7029 14.911 37.6674 14.5206C37.6292 14.1329 37.6292 13.7424 37.6702 13.352C37.7084 12.9616 37.7848 12.5794 37.8995 12.2053C38.0142 11.8313 38.1644 11.4709 38.35 11.1269C38.5329 10.7828 38.7514 10.4579 38.9998 10.1576C39.2483 9.85456 39.5267 9.5788 39.8298 9.33035C40.1329 9.08463 40.455 8.86894 40.8018 8.68328C41.1485 8.50035 41.5089 8.35292 41.883 8.23825C42.257 8.12631 42.6392 8.04986 43.0297 8.01437C43.4201 7.97614 43.8105 7.97614 44.1982 8.0171C44.5886 8.05532 44.9709 8.13177 45.3449 8.24644C45.719 8.36111 46.0794 8.51127 46.4234 8.69693C46.7701 8.87986 47.0923 9.09828 47.3953 9.34673C47.6957 9.59518 47.9714 9.87367 48.2199 10.1767C48.4683 10.4798 48.684 10.802 48.8669 11.1487C49.0499 11.4954 49.2 11.8558 49.312 12.2299C49.4239 12.6039 49.5004 12.9862 49.5386 13.3766C49.5768 13.767 49.5741 14.1574 49.5358 14.5451Z" fill="#FFD230" stroke="#FFD230" stroke-width="0.993873"/>
<path id="Vector_7" d="M63.2881 6.93866C63.2553 7.26356 63.1898 7.58027 63.0943 7.89425C62.9987 8.2055 62.8758 8.50583 62.7202 8.7925C62.5646 9.07918 62.3844 9.34947 62.1769 9.60066C61.9694 9.85457 61.7401 10.0839 61.4861 10.2887C61.235 10.4962 60.9647 10.6764 60.6753 10.8293C60.3886 10.9822 60.0882 11.105 59.7743 11.2006C59.463 11.2934 59.1436 11.3562 58.8187 11.389C58.4938 11.419 58.1689 11.419 57.844 11.3862C57.5191 11.3535 57.2024 11.288 56.8911 11.1924C56.5771 11.0996 56.2796 10.974 55.9901 10.8184C55.7035 10.6655 55.4332 10.4825 55.182 10.275C54.9308 10.0675 54.7015 9.83819 54.494 9.58701C54.2892 9.33309 54.109 9.0628 53.9561 8.77339C53.8005 8.48672 53.6776 8.18639 53.5848 7.87514C53.4892 7.56116 53.4264 7.24172 53.3964 6.91682C53.3636 6.59465 53.3664 6.26975 53.3991 5.94485C53.4319 5.61995 53.4947 5.30051 53.5903 4.98926C53.6858 4.67802 53.8114 4.37769 53.9643 4.09101C54.1199 3.8016 54.3001 3.53131 54.5076 3.28013C54.7151 3.02894 54.9445 2.7996 55.1984 2.5921C55.4495 2.38733 55.7198 2.20714 56.0093 2.05424C56.2959 1.90135 56.5963 1.77576 56.9102 1.68293C57.2215 1.5901 57.5409 1.5273 57.8658 1.49454C58.1907 1.46451 58.5156 1.46451 58.8405 1.49727C59.1654 1.53003 59.4821 1.59283 59.7934 1.68839C60.1074 1.78395 60.4077 1.90954 60.6944 2.06243C60.981 2.21806 61.2513 2.39825 61.5025 2.60575C61.7537 2.81325 61.983 3.04532 62.1905 3.29651C62.398 3.55042 62.5755 3.82071 62.7311 4.10739C62.884 4.3968 63.0069 4.69712 63.0997 5.00837C63.1953 5.32235 63.2581 5.63906 63.2881 5.96396C63.3209 6.28886 63.3181 6.61376 63.2881 6.93866Z" fill="#FFD230" stroke="#FFD230" stroke-width="0.993873"/>
<path id="Vector_8" d="M88.9415 20.0084C88.917 20.235 88.8733 20.4589 88.8078 20.6773C88.7395 20.8957 88.6521 21.1059 88.5457 21.3052C88.4364 21.5073 88.3109 21.6957 88.1634 21.8731C88.0187 22.0479 87.8576 22.209 87.6802 22.3537C87.5054 22.4984 87.3143 22.624 87.1123 22.7304C86.913 22.8396 86.7027 22.9243 86.4816 22.9898C86.2632 23.0553 86.042 23.1017 85.8127 23.1236C85.5861 23.1454 85.3595 23.1427 85.1328 23.1209C84.9035 23.099 84.6823 23.0526 84.4639 22.9871C84.2455 22.9188 84.0353 22.8315 83.8332 22.725C83.6339 22.6158 83.4428 22.4902 83.2681 22.3455C83.0906 22.198 82.9323 22.0369 82.7876 21.8622C82.6429 21.6847 82.5173 21.4936 82.408 21.2943C82.3016 21.0923 82.2142 20.8821 82.1487 20.6636C82.0832 20.4452 82.0395 20.2213 82.0176 19.9947C81.9958 19.7654 81.9958 19.5388 82.0176 19.3122C82.0422 19.0855 82.0859 18.8617 82.1541 18.6432C82.2197 18.4248 82.307 18.2146 82.4162 18.0126C82.5227 17.8133 82.651 17.6249 82.7957 17.4474C82.9404 17.2727 83.1015 17.1116 83.279 16.9669C83.4565 16.8222 83.6449 16.6966 83.8469 16.5874C84.0489 16.4809 84.2592 16.3962 84.4776 16.328C84.696 16.2625 84.9199 16.2188 85.1465 16.1969C85.3731 16.1751 85.5997 16.1751 85.8291 16.1997C86.0557 16.2215 86.2795 16.2652 86.498 16.3335C86.7164 16.399 86.9239 16.4863 87.1259 16.5956C87.328 16.7048 87.5164 16.8304 87.6911 16.9751C87.8686 17.1198 88.0296 17.2808 88.1743 17.4583C88.319 17.6358 88.4446 17.8242 88.5511 18.0262C88.6576 18.2282 88.745 18.4385 88.8105 18.6569C88.876 18.8753 88.9197 19.0992 88.9415 19.3258C88.9634 19.5524 88.9634 19.7818 88.9415 20.0084Z" fill="#FFD230" stroke="#FFD230" stroke-width="0.993873"/>
</g>
</svg>
